<svg width="279" height="240" viewBox="0 0 279 240" fill="none" xmlns="http://www.w3.org/2000/svg">
<path d="M135.879 207.19C196.175 207.19 245.055 195.002 245.055 179.967C245.055 164.932 196.175 152.744 135.879 152.744C75.5826 152.744 26.7029 164.932 26.7029 179.967C26.7029 195.002 75.5826 207.19 135.879 207.19Z" fill="url(#paint0_linear_6703_12585)"/>
<path d="M208.179 106.844V178.393C208.179 186.62 201.51 193.288 193.284 193.288H126.635C118.409 193.288 111.74 186.62 111.74 178.393V94C111.74 85.774 118.408 79.105 126.635 79.105H180.89V106.843L208.179 106.844Z" fill="url(#paint1_linear_6703_12585)"/>
<path d="M111.741 153.413C119.506 152.975 127.585 152.745 135.879 152.745C163.608 152.745 188.922 155.322 208.179 159.569V178.393C208.179 186.62 201.51 193.288 193.284 193.288H126.635C118.409 193.288 111.74 186.62 111.74 178.393L111.741 153.413Z" fill="url(#paint2_linear_6703_12585)"/>
<path d="M184.007 79.2949L208.266 103.555H184.007V79.2949Z" fill="#1A3DD3"/>
<path d="M154.473 71.8899V143.44C154.473 151.667 147.805 158.335 139.578 158.335H72.9289C64.7029 158.335 58.0339 151.667 58.0339 143.44V59.0469C58.0339 50.8209 64.7029 44.1519 72.9289 44.1519H127.184V71.8899H154.473Z" fill="url(#paint3_linear_6703_12585)"/>
<path d="M130.301 44.3418L154.56 68.6018H130.301V44.3418Z" fill="#2AB26B"/>
<path d="M70.6889 161.695V154.796H95.2849V161.694V164.868L99.2819 164.869C101.076 164.869 101.636 166.29 101.636 167.108C101.636 168.487 99.9659 169.741 98.4619 171.157C94.0959 175.276 90.3409 178.949 85.4799 182.97C84.2309 184.003 81.8449 184.074 80.4939 182.97C75.5979 178.972 71.8779 175.277 67.5119 171.157C66.0079 169.741 64.3379 168.487 64.3379 167.108C64.3379 166.29 64.8979 164.869 66.6919 164.869L70.6899 164.868L70.6889 161.695ZM66.8349 180.942V186.624H99.1389V180.942H105.866V186.624V191.616V193.35H60.1079V191.616V186.624V180.942H66.8349Z" fill="url(#paint4_linear_6703_12585)"/>
<path d="M164.068 134.87H189.333V142.347H164.068V134.87ZM164.068 149.098H189.333V156.575H164.068V149.098ZM128.234 164.112H189.333V171.589H128.234V164.112Z" fill="#32FAB7"/>
<path d="M193.577 57.585V64.484H168.981V57.585V54.411H164.985C163.19 54.411 162.631 52.99 162.631 52.171C162.631 50.793 164.301 49.538 165.805 48.123C170.171 44.003 173.925 40.331 178.786 36.31C180.035 35.277 182.422 35.207 183.772 36.31C188.668 40.308 192.388 44.003 196.754 48.123C198.258 49.539 199.928 50.793 199.928 52.171C199.928 52.99 199.368 54.411 197.574 54.411H193.576L193.577 57.585ZM165.127 62.552V68.234H197.431V62.552H204.159V68.233V73.226V74.96H158.401V73.226V68.233V62.552H165.127Z" fill="url(#paint5_linear_6703_12585)"/>
<path d="M74.5278 103.6H103.658V111.076H74.5278V103.6ZM110.362 118.613H135.627V126.088H110.362V118.613ZM110.362 89.3711H135.627V96.8471H110.362V89.3711ZM110.362 103.6H135.627V111.076H110.362V103.6ZM94.2008 96.8471L88.9628 89.1601L83.7258 96.8471H74.5288L84.3648 82.4111L74.5288 67.9761H83.7258L88.9638 75.6631L94.2018 67.9761H103.399L93.5628 82.4111L103.399 96.8471H94.2008ZM74.5278 118.613H103.658V126.088H74.5278V118.613Z" fill="#FEFEFE"/>
<defs>
<linearGradient id="paint0_linear_6703_12585" x1="26.703" y1="179.967" x2="245.055" y2="179.967" gradientUnits="userSpaceOnUse">
<stop stop-color="#00F59F"/>
<stop offset="1" stop-color="#4DD8DB"/>
</linearGradient>
<linearGradient id="paint1_linear_6703_12585" x1="111.741" y1="136.196" x2="208.179" y2="136.196" gradientUnits="userSpaceOnUse">
<stop stop-color="#8C63CF"/>
<stop offset="1" stop-color="#3647D3"/>
</linearGradient>
<linearGradient id="paint2_linear_6703_12585" x1="111.741" y1="173.016" x2="208.179" y2="173.016" gradientUnits="userSpaceOnUse">
<stop stop-color="#1B2BBB"/>
<stop offset="0.6138" stop-color="#0D6DD2"/>
<stop offset="0.9677" stop-color="#068FDE"/>
</linearGradient>
<linearGradient id="paint3_linear_6703_12585" x1="45.6928" y1="81.1742" x2="156.842" y2="123.266" gradientUnits="userSpaceOnUse">
<stop stop-color="#2AB26B"/>
<stop offset="1" stop-color="#13EDAD"/>
</linearGradient>
<linearGradient id="paint4_linear_6703_12585" x1="60.1083" y1="174.073" x2="105.866" y2="174.073" gradientUnits="userSpaceOnUse">
<stop stop-color="#9408A6"/>
<stop offset="1" stop-color="#DE37F3"/>
</linearGradient>
<linearGradient id="paint5_linear_6703_12585" x1="161.177" y1="77.4204" x2="207.031" y2="44.442" gradientUnits="userSpaceOnUse">
<stop stop-color="#9408A6"/>
<stop offset="1" stop-color="#DE37F3"/>
</linearGradient>
</defs>
</svg>
