<svg width="220" height="220" viewBox="0 0 220 220" fill="none" xmlns="http://www.w3.org/2000/svg">
<path d="M109.176 205.68C169.472 205.68 218.352 193.492 218.352 178.457C218.352 163.423 169.472 151.234 109.176 151.234C48.8798 151.234 0 163.423 0 178.457C0 193.492 48.8798 205.68 109.176 205.68Z" fill="url(#paint0_linear_5711_1320)"/>
<path d="M181.476 105.335V176.884C181.476 185.111 174.807 191.779 166.581 191.779H99.9321C91.7061 191.779 85.0371 185.111 85.0371 176.884V92.4907C85.0371 84.2647 91.7051 77.5957 99.9321 77.5957H154.187V105.334L181.476 105.335Z" fill="url(#paint1_linear_5711_1320)"/>
<path d="M85.0381 151.904C92.8031 151.466 100.882 151.236 109.176 151.236C136.905 151.236 162.219 153.813 181.476 158.06V176.884C181.476 185.111 174.807 191.779 166.581 191.779H99.9321C91.7061 191.779 85.0371 185.111 85.0371 176.884L85.0381 151.904Z" fill="url(#paint2_linear_5711_1320)"/>
<path d="M157.305 77.7871L181.564 102.047H157.305V77.7871Z" fill="#1A3DD3"/>
<path d="M127.769 70.3806V141.931C127.769 150.158 121.101 156.826 112.874 156.826H46.2251C37.9991 156.826 31.3301 150.158 31.3301 141.931V57.5376C31.3301 49.3116 37.9991 42.6426 46.2251 42.6426H100.48V70.3806H127.769Z" fill="url(#paint3_linear_5711_1320)"/>
<path d="M103.598 42.834L127.857 67.094H103.598V42.834Z" fill="#2AB26B"/>
<path d="M43.9853 160.186V153.287H68.5813V160.185V163.359L72.5783 163.36C74.3723 163.36 74.9323 164.781 74.9323 165.599C74.9323 166.978 73.2623 168.232 71.7583 169.648C67.3923 173.767 63.6373 177.44 58.7763 181.461C57.5273 182.494 55.1413 182.565 53.7903 181.461C48.8943 177.463 45.1743 173.768 40.8083 169.648C39.3043 168.232 37.6343 166.978 37.6343 165.599C37.6343 164.781 38.1943 163.36 39.9883 163.36L43.9863 163.359L43.9853 160.186ZM40.1313 179.433V185.115H72.4353V179.433H79.1623V185.115V190.107V191.841H33.4043V190.107V185.115V179.433H40.1313Z" fill="url(#paint4_linear_5711_1320)"/>
<path d="M137.365 133.361H162.63V140.838H137.365V133.361ZM137.365 147.589H162.63V155.066H137.365V147.589ZM101.531 162.603H162.63V170.08H101.531V162.603Z" fill="#32FAB7"/>
<path d="M166.873 56.0762V62.9752H142.277V56.0762V52.9022H138.281C136.486 52.9022 135.927 51.4812 135.927 50.6622C135.927 49.2842 137.597 48.0292 139.101 46.6142C143.467 42.4942 147.221 38.8222 152.082 34.8012C153.331 33.7682 155.718 33.6982 157.068 34.8012C161.964 38.7992 165.684 42.4942 170.05 46.6142C171.554 48.0302 173.224 49.2842 173.224 50.6622C173.224 51.4812 172.664 52.9022 170.87 52.9022H166.872L166.873 56.0762ZM138.423 61.0432V66.7252H170.727V61.0432H177.455V66.7242V71.7172V73.4512H131.697V71.7172V66.7242V61.0432H138.423Z" fill="url(#paint5_linear_5711_1320)"/>
<path d="M47.8242 102.091H76.9542V109.567H47.8242V102.091ZM83.6582 117.104H108.923V124.579H83.6582V117.104ZM83.6582 87.8618H108.923V95.3378H83.6582V87.8618ZM83.6582 102.091H108.923V109.567H83.6582V102.091ZM67.4972 95.3378L62.2592 87.6508L57.0222 95.3378H47.8252L57.6612 80.9018L47.8252 66.4668H57.0222L62.2602 74.1538L67.4982 66.4668H76.6952L66.8592 80.9018L76.6952 95.3378H67.4972ZM47.8242 117.104H76.9542V124.579H47.8242V117.104Z" fill="#FEFEFE"/>
<defs>
<linearGradient id="paint0_linear_5711_1320" x1="0.0001" y1="178.457" x2="218.352" y2="178.457" gradientUnits="userSpaceOnUse">
<stop stop-color="#00F59F"/>
<stop offset="1" stop-color="#4DD8DB"/>
</linearGradient>
<linearGradient id="paint1_linear_5711_1320" x1="85.0378" y1="134.687" x2="181.476" y2="134.687" gradientUnits="userSpaceOnUse">
<stop stop-color="#8C63CF"/>
<stop offset="1" stop-color="#3647D3"/>
</linearGradient>
<linearGradient id="paint2_linear_5711_1320" x1="85.0378" y1="171.507" x2="181.476" y2="171.507" gradientUnits="userSpaceOnUse">
<stop stop-color="#1B2BBB"/>
<stop offset="0.6138" stop-color="#0D6DD2"/>
<stop offset="0.9677" stop-color="#068FDE"/>
</linearGradient>
<linearGradient id="paint3_linear_5711_1320" x1="18.989" y1="79.6649" x2="130.138" y2="121.757" gradientUnits="userSpaceOnUse">
<stop stop-color="#2AB26B"/>
<stop offset="1" stop-color="#13EDAD"/>
</linearGradient>
<linearGradient id="paint4_linear_5711_1320" x1="33.4047" y1="172.564" x2="79.1625" y2="172.564" gradientUnits="userSpaceOnUse">
<stop stop-color="#9408A6"/>
<stop offset="1" stop-color="#DE37F3"/>
</linearGradient>
<linearGradient id="paint5_linear_5711_1320" x1="134.473" y1="75.9116" x2="180.328" y2="42.9332" gradientUnits="userSpaceOnUse">
<stop stop-color="#9408A6"/>
<stop offset="1" stop-color="#DE37F3"/>
</linearGradient>
</defs>
</svg>
